{"glyphs":{":":{"x_min":0,"x_max":166,"ha":166,"o":""},"$":{"x_min":0,"x_max":540,"ha":540,"o":"m 307 -9 l 307 -141 l 258 -141 l 258 -11 q 140 -8 47 62 l 74 102 q 118 69 170 53 q 221 37 270 37 q 354 37 395 71 q 436 105 436 165 q 436 205 417 230 q 398 256 366 273 q 334 290 277 311 l 258 317 q 196 340 158 360 q 121 380 97 412 q 73 445 73 494 q 73 542 98 578 q 123 614 165 634 q 207 654 258 658 l 258 789 l 307 789 l 307 658 q 353 655 396 640 q 439 626 483 597 l 456 557 q 411 585 368 598 q 326 611 277 611 q 241 611 207 599 q 173 587 151 562 q 129 537 129 498 q 129 465 144 443 q 158 421 188 404 q 219 387 274 367 l 293 360 q 357 337 396 317 q 435 297 464 260 q 492 223 492 165 q 492 90 444 44 q 396 -1 307 -9 z"},"?":{"x_min":0,"x_max":440,"ha":440,"o":"m 181 212 q 181 253 190 284 q 198 316 219 344 q 240 371 276 399 q 314 429 328 452 q 342 475 342 507 q 342 538 326 561 q 311 584 284 597 q 256 610 220 610 q 177 610 138 592 q 99 575 61 544 l 30 579 q 75 618 122 638 q 170 659 226 659 q 275 659 314 640 q 353 622 376 588 q 398 554 398 511 q 398 467 381 436 q 364 404 319 371 q 270 335 250 298 q 231 260 231 205 l 231 189 l 181 185 z m 168 31 q 168 47 180 58 q 191 70 207 70 q 223 70 235 58 q 247 47 247 31 q 247 15 235 4 q 223 -8 207 -8 q 191 -8 180 4 q 168 15 168 31 z"},"<":{"x_min":0,"x_max":540,"ha":540,"o":"m 463 403 l 115 256 l 463 106 l 444 63 l 77 220 l 77 291 l 444 447 z"},"'":{"x_min":0,"x_max":236,"ha":236,"o":"m 95 418 l 95 648 l 153 648 l 130 418 z"},"=":{"x_min":0,"x_max":540,"ha":540,"o":"m 77 311 l 77 359 l 463 359 l 463 311 z m 77 151 l 77 199 l 463 199 l 463 151 z"},"a":{"x_min":0,"x_max":454,"ha":454,"o":"m 381 298 l 381 0 l 334 0 l 330 48 q 292 18 250 4 q 207 -11 164 -11 q 125 -11 96 3 q 66 17 50 42 q 33 68 33 102 q 33 182 116 221 q 199 260 329 262 l 329 292 q 329 343 306 369 q 284 395 236 395 q 198 395 160 382 q 121 370 76 341 l 52 378 q 142 440 241 440 q 381 440 381 298 z m 176 34 q 217 34 254 49 q 291 64 329 92 l 329 221 q 222 219 156 192 q 89 164 89 106 q 89 72 110 53 q 132 34 176 34 z"},"L":{"x_min":0,"x_max":505,"ha":505,"o":"m 152 49 l 482 49 l 482 0 l 97 0 l 97 648 l 152 648 z"},"3":{"x_min":0,"x_max":540,"ha":540,"o":"m 457 185 q 457 126 430 82 q 402 37 351 13 q 300 -11 231 -11 q 183 -11 139 -1 q 95 9 62 25 l 80 66 q 154 35 230 35 q 280 35 318 52 q 357 70 378 102 q 400 135 400 181 q 400 246 356 282 q 311 318 221 318 l 170 318 l 174 363 l 241 363 q 315 381 352 417 q 390 453 390 509 q 390 539 376 563 q 361 587 330 601 q 299 615 252 615 q 207 615 170 599 q 133 583 92 551 l 62 584 q 105 621 152 640 q 200 660 255 660 q 317 660 360 640 q 403 619 424 584 q 445 550 445 508 q 445 450 409 410 q 373 369 311 348 q 380 333 418 290 q 457 247 457 185 z"},";":{"x_min":0,"x_max":166,"ha":166,"o":""},"J":{"x_min":0,"x_max":433,"ha":433,"o":"m 3 42 l 32 83 q 59 62 90 50 q 121 39 161 39 q 224 39 257 78 q 290 118 290 182 l 290 648 l 346 648 l 346 181 q 346 118 322 75 q 299 32 258 10 q 216 -11 160 -11 q 72 -11 3 42 z"},"V":{"x_min":0,"x_max":612,"ha":612,"o":"m 536 648 l 590 648 l 590 643 l 336 0 l 277 0 l 22 643 l 22 648 l 79 648 l 308 60 z"},"\"":{"x_min":0,"x_max":382,"ha":382,"o":""},"7":{"x_min":0,"x_max":540,"ha":540,"o":"m 473 648 l 473 619 q 359 454 298 309 q 236 164 207 0 l 150 0 q 179 157 239 300 q 299 444 407 601 l 67 601 l 73 648 z"},"S":{"x_min":0,"x_max":548,"ha":548,"o":"m 44 62 l 71 102 q 115 69 166 53 q 218 37 267 37 q 351 37 392 71 q 433 105 433 165 q 433 205 414 230 q 395 256 363 273 q 331 290 274 311 l 255 317 q 193 340 156 360 q 118 380 94 412 q 70 445 70 494 q 70 545 98 582 q 127 620 174 640 q 221 659 276 659 q 331 659 380 644 q 429 630 480 597 l 453 557 q 408 585 366 598 q 323 611 274 611 q 238 611 204 599 q 170 587 148 562 q 126 537 126 498 q 126 465 140 443 q 155 421 186 404 q 216 387 271 367 l 290 360 q 354 337 393 317 q 432 297 460 260 q 489 223 489 165 q 489 110 463 70 q 437 31 387 10 q 337 -11 266 -11 q 204 -11 148 8 q 92 26 44 62 z"},"}":{"x_min":0,"x_max":360,"ha":360,"o":"m 35 -76 q 113 -68 146 -42 q 179 -16 179 32 q 179 67 170 121 q 167 143 164 166 q 162 189 162 206 q 162 254 186 279 q 209 304 243 308 q 209 312 186 337 q 162 362 162 410 q 162 427 164 450 q 167 473 170 495 q 179 549 179 584 q 179 632 146 658 q 113 684 35 692 l 43 736 q 138 727 185 691 q 232 655 232 588 q 232 574 230 553 q 227 532 224 511 q 214 445 214 411 q 214 370 236 350 q 257 330 305 329 l 305 287 q 257 286 236 266 q 214 246 214 205 q 214 171 224 105 q 227 84 230 63 q 232 42 232 28 q 232 -39 185 -75 q 138 -111 43 -120 z"},"Z":{"x_min":0,"x_max":542,"ha":542,"o":"m 491 648 l 491 614 l 110 49 l 481 49 l 481 0 l 42 0 l 42 35 l 422 599 l 67 599 l 73 648 z"},"x":{"x_min":0,"x_max":411,"ha":411,"o":"m 238 222 l 398 5 l 398 0 l 339 0 l 204 185 l 68 0 l 14 0 l 14 5 l 173 221 l 21 425 l 21 430 l 79 430 l 207 257 l 332 430 l 385 430 l 385 425 z"},")":{"x_min":0,"x_max":360,"ha":360,"o":"m 34 -103 q 93 -44 132 14 q 172 73 194 144 q 217 216 217 303 q 217 390 194 462 q 172 533 132 592 q 93 650 34 709 l 66 736 q 133 673 178 612 q 222 551 246 476 q 271 400 271 303 q 271 206 246 130 q 222 55 178 -6 q 133 -67 66 -130 z"},"&":{"x_min":0,"x_max":653,"ha":653,"o":"m 598 -11 l 484 87 q 381 -11 256 -11 q 197 -11 150 8 q 104 27 78 64 q 52 101 52 153 q 52 199 70 234 q 88 270 117 296 q 146 321 187 345 q 138 390 115 426 q 92 463 92 505 q 92 548 112 583 q 133 618 172 638 q 211 659 263 659 q 310 659 347 642 q 384 626 405 594 q 426 563 426 521 q 426 478 404 446 q 382 413 351 392 q 320 370 265 339 l 481 154 q 534 217 574 307 l 620 287 q 574 190 518 123 l 633 25 z m 230 369 q 279 395 308 414 q 336 433 355 458 q 374 484 374 518 q 374 562 345 588 q 316 615 263 615 q 224 615 197 600 q 170 586 157 562 q 144 537 144 506 q 144 472 163 442 q 182 411 230 369 z m 448 119 l 221 314 q 166 281 136 245 q 106 209 106 156 q 106 122 124 95 q 141 68 176 52 q 211 36 260 36 q 362 36 448 119 z"},"_":{"x_min":0,"x_max":540,"ha":540,"o":"m 57 -139 l 57 -91 l 483 -91 l 483 -139 z"},"v":{"x_min":0,"x_max":439,"ha":439,"o":"m 425 430 l 425 425 l 248 0 l 195 0 l 14 425 l 14 430 l 70 430 l 189 139 q 201 111 210 85 q 220 59 223 50 q 233 79 256 139 l 372 430 z"},"O":{"x_min":0,"x_max":691,"ha":691,"o":"m 52 326 q 52 438 94 512 q 135 587 202 623 q 270 659 349 659 q 441 659 506 616 q 571 574 605 498 q 639 422 639 322 q 639 210 598 135 q 557 60 490 24 q 422 -11 342 -11 q 250 -11 185 32 q 120 74 86 150 q 52 226 52 326 z m 582 321 q 582 405 556 470 q 530 536 478 574 q 426 611 349 611 q 272 611 218 575 q 163 539 136 474 q 108 410 108 327 q 108 244 134 178 q 160 112 212 74 q 265 37 342 37 q 419 37 473 74 q 527 110 554 174 q 582 238 582 321 z"},"(":{"x_min":0,"x_max":360,"ha":360,"o":"m 89 303 q 89 400 114 476 q 138 551 182 612 q 227 673 294 736 l 326 709 q 267 650 228 592 q 188 533 166 462 q 143 390 143 303 q 143 216 166 144 q 188 73 228 14 q 267 -44 326 -103 l 294 -130 q 227 -67 182 -6 q 138 55 114 130 q 89 206 89 303 z"},"C":{"x_min":0,"x_max":568,"ha":568,"o":"m 52 325 q 52 438 93 513 q 134 588 200 624 q 266 659 343 659 q 402 659 451 644 q 500 629 548 601 l 523 559 q 480 584 439 597 q 398 610 344 610 q 268 610 215 574 q 162 538 136 474 q 109 410 109 327 q 109 243 135 178 q 161 113 214 76 q 266 38 343 38 q 395 38 440 52 q 484 66 529 91 l 552 50 q 450 -11 342 -11 q 249 -11 184 31 q 118 73 85 148 q 52 224 52 325 z"},"W":{"x_min":0,"x_max":903,"ha":903,"o":"m 875 648 l 875 643 l 685 0 l 626 0 l 486 468 q 461 553 452 599 q 435 528 418 468 l 278 0 l 220 0 l 28 643 l 28 648 l 84 648 l 214 197 q 235 126 250 62 l 259 99 q 273 164 283 197 l 421 648 l 486 648 l 624 197 q 631 174 640 140 q 648 107 651 95 l 659 61 q 678 141 694 197 l 821 648 z"},"A":{"x_min":0,"x_max":615,"ha":615,"o":"m 337 648 l 594 5 l 594 0 l 536 0 l 456 203 l 155 203 l 76 0 l 22 0 l 22 5 l 277 648 z m 174 250 l 438 250 l 306 588 z"},"f":{"x_min":0,"x_max":316,"ha":316,"o":"m 166 542 l 166 430 l 310 430 l 305 388 l 166 388 l 166 0 l 114 0 l 114 388 l 23 388 l 23 430 l 114 430 l 114 540 q 114 587 132 622 q 149 656 182 674 q 214 693 258 693 q 284 693 306 688 q 328 684 351 675 l 336 633 q 315 640 298 644 q 281 648 261 648 q 213 648 190 620 q 166 591 166 542 z"},"Q":{"x_min":0,"x_max":691,"ha":691,"o":"m 628 -125 l 412 -3 q 375 -11 342 -11 q 250 -11 185 32 q 120 74 86 150 q 52 226 52 326 q 52 438 94 512 q 135 587 202 623 q 270 659 349 659 q 441 659 506 616 q 571 574 605 498 q 639 422 639 322 q 639 205 592 126 q 544 48 465 14 l 657 -81 z m 342 37 q 419 37 473 74 q 527 110 554 174 q 582 238 582 321 q 582 405 556 470 q 530 536 478 574 q 426 611 349 611 q 272 611 218 575 q 163 539 136 474 q 108 410 108 327 q 108 244 134 178 q 160 112 212 74 q 265 37 342 37 z"},"w":{"x_min":0,"x_max":645,"ha":645,"o":"m 633 430 l 633 425 l 490 0 l 438 0 l 339 314 q 329 344 323 371 q 319 347 308 314 l 209 0 l 159 0 l 12 425 l 12 430 l 67 430 l 169 115 q 180 81 185 60 q 191 85 200 115 l 297 430 l 353 430 l 452 109 q 460 85 466 58 q 469 78 479 109 l 582 430 z"},"-":{"x_min":0,"x_max":380,"ha":380,"o":"m 57 243 l 57 292 l 323 292 l 323 243 z"},"E":{"x_min":0,"x_max":540,"ha":540,"o":"m 152 48 l 482 48 l 482 0 l 97 0 l 97 648 l 477 648 l 477 600 l 152 600 l 152 352 l 438 352 l 432 305 l 152 305 z"},"s":{"x_min":0,"x_max":409,"ha":409,"o":"m 26 46 l 51 85 q 122 33 204 33 q 256 33 288 54 q 319 75 319 112 q 319 136 308 152 q 296 169 272 180 q 249 192 208 203 l 175 212 q 111 228 79 254 q 47 280 47 325 q 47 360 66 386 q 86 412 120 426 q 155 440 199 440 q 241 440 278 430 q 314 421 358 397 l 335 358 q 296 379 264 388 q 233 396 200 396 q 154 396 128 378 q 101 361 101 328 q 101 308 110 296 q 120 283 139 274 q 158 266 192 257 l 225 248 q 278 234 310 218 q 342 201 358 176 q 373 152 373 116 q 373 79 353 50 q 333 21 296 5 q 258 -11 207 -11 q 152 -11 109 3 q 66 17 26 46 z"},">":{"x_min":0,"x_max":540,"ha":540,"o":"m 96 448 l 463 291 l 463 220 l 96 64 l 77 108 l 425 255 l 77 405 z"},"l":{"x_min":0,"x_max":210,"ha":210,"o":"m 79 0 l 79 688 l 131 694 l 131 0 z"},"8":{"x_min":0,"x_max":540,"ha":540,"o":"m 493 163 q 493 109 467 70 q 441 30 391 10 q 341 -11 272 -11 q 203 -11 152 10 q 101 32 74 72 q 47 112 47 164 q 47 225 86 269 q 126 313 213 345 q 153 372 116 409 q 80 446 80 503 q 80 550 104 586 q 129 621 173 640 q 217 659 274 659 q 335 659 378 637 q 420 615 440 580 q 461 545 461 506 q 461 453 424 414 q 388 374 323 344 q 383 319 418 296 q 454 272 474 240 q 493 208 493 163 z m 277 364 q 337 387 372 422 q 408 458 408 500 q 408 553 372 584 q 336 615 272 615 q 230 615 198 601 q 167 587 150 562 q 133 536 133 502 q 133 469 149 446 q 165 423 195 404 q 225 386 277 364 z m 438 159 q 438 200 418 228 q 399 255 363 276 q 327 297 259 326 q 179 298 140 260 q 102 222 102 170 q 102 129 124 98 q 145 68 184 52 q 223 35 273 35 q 327 35 364 50 q 401 66 420 94 q 438 122 438 159 z"},"\\":{"x_min":0,"x_max":485,"ha":485,"o":"m 386 -133 l 52 753 l 98 768 l 433 -118 z"},"e":{"x_min":0,"x_max":454,"ha":454,"o":"m 411 211 l 93 211 q 94 119 132 76 q 169 34 236 34 q 268 34 293 40 q 318 47 336 56 q 355 66 379 82 l 400 44 q 363 18 324 4 q 284 -11 235 -11 q 146 -11 94 44 q 41 99 41 214 q 41 271 63 322 q 85 374 130 407 q 175 440 242 440 q 299 440 338 416 q 376 392 394 352 q 413 311 413 259 q 413 230 411 211 z m 95 252 l 363 252 l 363 260 q 363 326 333 362 q 303 399 242 399 q 197 399 166 378 q 135 357 118 324 q 100 291 95 252 z"},"b":{"x_min":0,"x_max":498,"ha":498,"o":"m 457 231 q 457 148 422 94 q 388 39 334 14 q 279 -11 216 -11 q 184 -11 150 -4 q 117 2 79 16 l 79 688 l 131 694 l 131 397 q 169 417 210 428 q 251 440 288 440 q 375 440 416 384 q 457 327 457 231 z m 401 233 q 401 311 372 353 q 343 395 278 395 q 213 395 131 356 l 131 45 q 173 34 214 34 q 302 34 352 84 q 401 135 401 233 z"},"%":{"x_min":0,"x_max":953,"ha":953,"o":"m 57 471 q 57 528 80 571 q 103 614 144 636 q 185 659 238 659 q 291 659 332 636 q 373 613 396 570 q 419 527 419 470 q 419 413 396 370 q 373 327 332 304 q 291 281 238 281 q 185 281 144 304 q 103 327 80 370 q 57 413 57 471 z m 262 -11 l 223 15 l 695 659 l 731 634 z m 369 470 q 369 514 353 547 q 337 580 308 598 q 278 615 238 615 q 198 615 168 598 q 139 580 123 548 q 107 515 107 471 q 107 426 123 393 q 139 360 168 342 q 198 325 238 325 q 278 325 308 342 q 337 360 353 393 q 369 426 369 470 z m 535 179 q 535 236 558 279 q 581 322 622 344 q 663 367 716 367 q 769 367 810 344 q 851 321 874 278 q 897 235 897 178 q 897 121 874 78 q 851 35 810 12 q 769 -11 716 -11 q 663 -11 622 12 q 581 35 558 78 q 535 121 535 179 z m 847 178 q 847 222 831 255 q 815 288 786 306 q 756 323 716 323 q 676 323 646 306 q 617 288 601 256 q 585 223 585 179 q 585 134 601 101 q 617 68 646 50 q 676 33 716 33 q 756 33 786 50 q 815 68 831 101 q 847 134 847 178 z"},"m":{"x_min":0,"x_max":759,"ha":759,"o":"m 685 310 l 685 0 l 633 0 l 633 289 q 633 346 614 370 q 594 395 546 395 q 487 395 403 353 q 408 333 408 310 l 408 0 l 356 0 l 356 289 q 356 327 348 350 q 339 373 320 384 q 302 395 269 395 q 237 395 200 384 q 164 372 131 355 l 131 0 l 79 0 l 79 430 l 131 436 l 131 395 q 215 440 282 440 q 316 440 344 428 q 372 417 389 389 q 428 410 473 425 q 518 440 559 440 q 612 440 648 411 q 685 382 685 310 z"},"#":{"x_min":0,"x_max":540,"ha":540,"o":"m 521 451 l 429 451 l 392 203 l 479 203 l 479 161 l 385 161 l 361 0 l 313 0 l 337 161 l 150 161 l 126 0 l 77 0 l 101 161 l 19 161 l 19 203 l 108 203 l 145 451 l 60 451 l 60 493 l 152 493 l 175 648 l 224 648 l 201 493 l 388 493 l 411 648 l 459 648 l 436 493 l 521 493 z m 344 203 l 381 451 l 194 451 l 157 203 z"},",":{"x_min":0,"x_max":166,"ha":166,"o":"m 28 -119 q 50 -89 62 -62 q 74 -36 74 -19 q 74 -12 70 -8 q 67 -4 61 0 q 52 6 48 12 q 44 18 44 31 q 44 48 55 59 q 66 70 82 70 q 99 70 111 58 q 123 45 123 20 q 123 -11 106 -52 q 90 -93 58 -134 z"},"n":{"x_min":0,"x_max":511,"ha":511,"o":"m 437 303 l 437 0 l 385 0 l 385 282 q 385 322 376 346 q 366 371 344 383 q 323 395 285 395 q 249 395 208 384 q 168 372 131 355 l 131 0 l 79 0 l 79 430 l 131 436 l 131 394 q 169 413 212 426 q 256 440 298 440 q 359 440 398 410 q 437 379 437 303 z"},"h":{"x_min":0,"x_max":511,"ha":511,"o":"m 437 304 l 437 0 l 385 0 l 385 282 q 385 322 376 346 q 366 371 344 383 q 322 395 284 395 q 248 395 208 384 q 169 372 131 355 l 131 0 l 79 0 l 79 688 l 131 694 l 131 394 q 170 414 214 427 q 257 440 298 440 q 359 440 398 410 q 437 379 437 304 z"},"z":{"x_min":0,"x_max":402,"ha":402,"o":"m 98 47 l 369 47 l 369 0 l 28 0 l 28 32 l 296 384 l 43 384 l 50 430 l 367 430 l 367 399 z"},"B":{"x_min":0,"x_max":595,"ha":595,"o":"m 543 175 q 543 126 520 86 q 496 47 443 24 q 390 0 307 0 l 97 0 l 97 648 l 304 648 q 371 648 419 629 q 467 610 492 574 q 518 537 518 485 q 518 433 488 393 q 457 353 389 336 q 466 324 504 281 q 543 238 543 175 z m 152 601 l 152 354 l 296 354 q 368 354 415 386 q 462 417 462 485 q 462 519 445 545 q 428 571 394 586 q 360 601 311 601 z m 486 176 q 486 239 442 274 q 398 308 315 308 l 152 308 l 152 47 l 314 47 q 403 47 444 83 q 486 119 486 176 z"},"K":{"x_min":0,"x_max":555,"ha":555,"o":"m 219 338 l 545 5 l 545 0 l 478 0 l 152 332 l 152 0 l 97 0 l 97 648 l 152 648 l 152 340 l 465 648 l 528 648 l 528 643 z"},"R":{"x_min":0,"x_max":567,"ha":567,"o":"m 547 5 l 547 0 l 484 0 l 278 269 l 152 269 l 152 0 l 97 0 l 97 648 l 286 648 q 357 648 408 626 q 459 603 486 562 q 513 520 513 464 q 513 415 494 376 q 474 336 435 309 q 396 282 339 273 z m 152 316 l 284 316 q 370 316 414 355 q 457 394 457 460 q 457 526 414 563 q 370 600 284 600 l 152 600 z"},"T":{"x_min":0,"x_max":569,"ha":569,"o":"m 547 648 l 547 599 l 312 599 l 312 0 l 257 0 l 257 599 l 22 599 l 22 648 z"},"P":{"x_min":0,"x_max":554,"ha":554,"o":"m 523 458 q 523 403 496 356 q 470 310 416 282 q 362 254 283 254 l 152 254 l 152 0 l 97 0 l 97 648 l 295 648 q 366 648 418 624 q 469 601 496 558 q 523 516 523 458 z m 467 454 q 467 522 423 561 q 379 600 293 600 l 152 600 l 152 302 l 280 302 q 341 302 384 322 q 426 343 446 378 q 467 412 467 454 z"},"|":{"x_min":0,"x_max":270,"ha":270,"o":"m 110 -186 l 110 755 l 160 755 l 160 -186 z"},"t":{"x_min":0,"x_max":352,"ha":352,"o":"m 333 13 q 285 -11 237 -11 q 175 -11 142 26 q 110 64 110 131 l 110 388 l 18 388 l 18 430 l 110 430 l 110 531 l 162 539 l 162 430 l 321 430 l 315 388 l 162 388 l 162 139 q 162 87 181 60 q 200 34 241 34 q 277 34 318 52 z"},"M":{"x_min":0,"x_max":823,"ha":823,"o":"m 726 648 l 726 0 l 672 0 l 672 561 q 657 527 635 486 l 438 115 l 381 115 l 187 486 l 177 506 q 160 536 150 558 l 150 0 l 97 0 l 97 648 l 162 648 l 360 270 l 374 242 q 401 190 411 166 q 420 187 434 214 q 447 242 462 270 l 664 648 z"},"g":{"x_min":0,"x_max":480,"ha":480,"o":"m 467 -59 q 467 -99 439 -130 q 411 -162 358 -180 q 306 -197 234 -197 q 141 -197 89 -166 q 37 -135 37 -73 q 37 -38 55 -12 q 73 15 110 40 q 77 59 77 95 q 77 114 88 130 q 99 147 122 162 q 90 183 74 216 q 58 248 58 286 q 58 337 82 372 q 106 406 148 423 q 189 440 241 440 q 272 440 295 434 l 445 491 l 463 448 l 344 412 q 382 389 400 356 q 418 322 418 285 q 418 235 394 201 q 369 167 327 150 q 285 133 233 133 q 190 133 154 146 q 129 124 129 104 q 129 84 152 74 q 175 64 225 59 l 316 50 q 392 42 430 16 q 467 -11 467 -59 z m 110 287 q 110 237 140 206 q 171 174 239 174 q 299 174 332 202 q 366 231 366 284 q 366 319 350 346 q 334 372 305 386 q 276 400 238 400 q 171 400 140 368 q 110 335 110 287 z m 413 -63 q 413 -33 386 -16 q 360 0 302 6 l 212 15 q 178 18 147 26 q 88 -14 88 -66 q 88 -114 125 -134 q 162 -153 236 -153 q 276 -153 316 -144 q 357 -136 385 -116 q 413 -96 413 -63 z"},"j":{"x_min":0,"x_max":210,"ha":210,"o":"m 66 587 q 66 603 78 614 q 89 626 104 626 q 120 626 132 614 q 143 603 143 587 q 143 572 132 560 q 120 549 104 549 q 89 549 78 560 q 66 572 66 587 z m -87 -179 l -72 -139 q -34 -153 -1 -153 q 43 -153 61 -124 q 79 -95 79 -50 l 79 430 l 131 436 l 131 -48 q 131 -119 98 -158 q 66 -197 1 -197 q -21 -197 -44 -192 q -67 -187 -87 -179 z"},"i":{"x_min":0,"x_max":210,"ha":210,"o":"m 66 587 q 66 603 78 614 q 89 626 104 626 q 120 626 132 614 q 143 603 143 587 q 143 572 132 560 q 120 549 104 549 q 89 549 78 560 q 66 572 66 587 z m 79 0 l 79 430 l 131 436 l 131 0 z"},"y":{"x_min":0,"x_max":438,"ha":438,"o":"m 423 430 l 423 425 l 231 -70 q 204 -139 172 -168 q 139 -197 89 -197 q 51 -197 12 -182 l 27 -141 q 56 -153 86 -153 q 107 -153 123 -146 q 139 -139 153 -121 q 167 -103 181 -69 l 208 0 l 191 0 l 14 425 l 14 430 l 69 430 l 183 149 q 211 80 224 42 l 264 150 l 371 430 z"},"@":{"x_min":0,"x_max":904,"ha":904,"o":"m 852 296 q 852 235 832 183 q 812 131 772 100 q 733 69 679 69 q 639 69 612 84 q 584 99 571 126 q 535 95 498 82 q 461 69 422 69 q 366 69 330 96 q 293 122 276 167 q 259 212 259 267 q 259 337 289 386 q 319 434 367 458 q 415 481 468 481 q 511 481 543 473 q 575 465 607 450 l 607 182 q 607 152 626 132 q 644 113 682 113 q 718 113 745 138 q 772 162 786 204 q 800 245 800 296 q 800 382 764 454 q 729 526 654 570 q 578 614 464 614 q 362 614 280 571 q 198 528 151 447 q 104 366 104 256 q 104 155 146 80 q 189 5 266 -35 q 342 -75 443 -75 q 498 -75 545 -67 q 592 -59 640 -40 l 654 -81 q 604 -102 552 -112 q 501 -121 444 -121 q 328 -121 239 -74 q 150 -28 101 58 q 52 143 52 256 q 52 379 106 470 q 161 561 256 610 q 351 659 471 659 q 590 659 676 612 q 762 564 807 482 q 852 399 852 296 z m 429 113 q 495 113 556 163 l 556 426 q 535 432 516 435 q 497 438 473 438 q 429 438 392 419 q 356 400 334 362 q 312 324 312 269 q 312 113 429 113 z"},".":{"x_min":0,"x_max":166,"ha":166,"o":"m 44 31 q 44 47 56 58 q 67 70 83 70 q 99 70 111 58 q 123 47 123 31 q 123 15 111 4 q 99 -8 83 -8 q 67 -8 56 4 q 44 15 44 31 z"},"p":{"x_min":0,"x_max":498,"ha":498,"o":"m 457 226 q 457 147 426 94 q 395 40 344 14 q 292 -11 231 -11 q 180 -11 131 6 l 131 -186 l 79 -186 l 79 430 l 131 436 l 131 395 q 168 416 208 428 q 247 440 282 440 q 371 440 414 381 q 457 322 457 226 z m 401 226 q 401 307 370 351 q 338 395 272 395 q 202 395 131 353 l 131 49 q 176 33 228 33 q 281 33 320 55 q 359 77 380 120 q 401 164 401 226 z"},"X":{"x_min":0,"x_max":565,"ha":565,"o":"m 315 338 l 544 0 l 479 0 l 281 297 l 81 0 l 22 0 l 248 336 l 36 648 l 100 648 l 282 376 l 466 648 l 525 648 z"},"*":{"x_min":0,"x_max":500,"ha":500,"o":"m 436 532 l 276 494 l 381 366 l 334 334 l 250 472 l 166 334 l 119 366 l 224 494 l 64 532 l 82 585 l 233 523 l 221 688 l 278 688 l 266 523 l 418 585 z"},"Y":{"x_min":0,"x_max":566,"ha":566,"o":"m 544 648 l 544 643 l 309 262 l 309 0 l 254 0 l 254 264 l 22 643 l 22 648 l 81 648 l 284 312 l 488 648 z"},"c":{"x_min":0,"x_max":409,"ha":409,"o":"m 41 205 q 41 284 72 337 q 102 390 150 415 q 197 440 249 440 q 313 440 379 405 l 360 365 q 328 380 300 388 q 273 395 245 395 q 199 395 166 371 q 132 347 114 304 q 96 261 96 205 q 96 35 238 35 q 274 35 306 46 q 338 57 370 78 l 392 40 q 320 -11 232 -11 q 173 -11 130 14 q 87 40 64 88 q 41 137 41 205 z"},"!":{"x_min":0,"x_max":210,"ha":210,"o":"m 83 181 l 73 648 l 135 648 l 124 185 z m 66 31 q 66 47 78 58 q 89 70 105 70 q 121 70 133 58 q 145 47 145 31 q 145 15 133 4 q 121 -8 105 -8 q 89 -8 78 4 q 66 15 66 31 z"},"/":{"x_min":0,"x_max":485,"ha":485,"o":"m 99 -133 l 52 -118 l 387 768 l 433 753 z"},"[":{"x_min":0,"x_max":360,"ha":360,"o":"m 104 -111 l 104 728 l 333 728 l 333 682 l 156 682 l 156 -65 l 333 -65 l 333 -111 z"},"6":{"x_min":0,"x_max":540,"ha":540,"o":"m 487 201 q 487 130 457 82 q 427 35 378 12 q 328 -11 271 -11 q 203 -11 156 22 q 109 54 86 112 q 63 171 63 250 q 63 379 96 472 q 129 564 188 612 q 247 659 325 659 q 356 659 383 654 q 410 649 445 637 l 432 594 q 375 613 322 613 q 236 613 184 540 q 133 466 120 339 q 203 408 299 408 q 351 408 394 386 q 436 365 462 318 q 487 272 487 201 z m 434 196 q 434 285 398 324 q 361 363 288 363 q 240 363 201 345 q 162 327 117 289 q 116 276 116 250 q 116 142 157 88 q 198 35 274 35 q 320 35 356 54 q 393 73 414 110 q 434 146 434 196 z"},"r":{"x_min":0,"x_max":335,"ha":335,"o":"m 313 433 l 300 380 q 271 389 249 389 q 214 389 184 368 q 153 348 131 301 l 131 0 l 79 0 l 79 430 l 131 436 l 131 365 q 156 403 188 422 q 221 440 257 440 q 271 440 284 438 q 297 437 313 433 z"},"2":{"x_min":0,"x_max":540,"ha":540,"o":"m 466 47 l 466 0 l 54 0 l 54 31 q 183 153 252 225 q 321 297 359 358 q 397 418 397 470 q 397 537 360 574 q 323 610 257 610 q 209 610 167 588 q 125 567 84 532 l 54 566 q 102 610 152 634 q 203 659 263 659 q 320 659 363 636 q 406 614 430 573 q 453 532 453 477 q 453 416 414 352 q 376 287 314 221 q 251 155 138 47 z"},"{":{"x_min":0,"x_max":360,"ha":360,"o":"m 128 28 q 128 42 130 63 q 133 84 136 105 q 146 171 146 205 q 146 246 124 266 q 103 286 55 287 l 55 329 q 103 330 124 350 q 146 370 146 411 q 146 445 136 511 q 133 532 130 553 q 128 574 128 588 q 128 655 175 691 q 222 727 317 736 l 325 692 q 247 684 214 658 q 181 632 181 584 q 181 549 190 495 q 193 473 196 450 q 198 427 198 410 q 198 362 174 337 q 151 312 117 308 q 151 304 174 279 q 198 254 198 206 q 198 189 196 166 q 193 143 190 121 q 181 67 181 32 q 181 -16 214 -42 q 247 -68 325 -76 l 317 -120 q 222 -111 175 -75 q 128 -39 128 28 z"},"9":{"x_min":0,"x_max":540,"ha":540,"o":"m 477 398 q 477 267 445 175 q 413 83 354 36 q 295 -11 215 -11 q 183 -11 154 -6 q 125 -1 93 11 l 107 54 q 160 34 218 34 q 305 34 356 104 q 407 175 420 302 q 378 266 334 248 q 290 231 240 231 q 187 231 145 253 q 103 275 78 323 q 53 371 53 445 q 53 515 84 564 q 114 612 162 636 q 211 659 266 659 q 335 659 382 626 q 430 594 454 536 q 477 477 477 398 z m 424 351 q 425 366 425 398 q 425 506 384 560 q 342 614 265 614 q 219 614 182 594 q 146 575 126 538 q 105 500 105 448 q 105 357 142 316 q 178 276 252 276 q 299 276 339 294 q 379 313 424 351 z"}," ":{"x_min":0,"x_max":254,"ha":254,"o":""},"I":{"x_min":0,"x_max":249,"ha":249,"o":"m 97 0 l 97 648 l 152 648 l 152 0 z"},"H":{"x_min":0,"x_max":704,"ha":704,"o":"m 552 648 l 607 648 l 607 0 l 552 0 l 552 305 l 152 305 l 152 0 l 97 0 l 97 648 l 152 648 l 152 353 l 552 353 z"},"4":{"x_min":0,"x_max":540,"ha":540,"o":"m 498 203 l 498 155 l 396 155 l 396 0 l 341 0 l 341 155 l 41 155 l 41 187 l 231 648 l 291 648 l 104 203 l 341 203 l 350 439 l 396 439 l 396 203 z"},"~":{"x_min":0,"x_max":540,"ha":540,"o":"m 255 247 q 228 261 214 267 q 199 273 183 273 q 163 273 145 259 q 127 245 113 221 l 77 235 q 99 280 126 302 q 152 323 188 323 q 213 323 234 315 q 256 307 285 291 q 308 278 324 272 q 340 265 356 265 q 377 265 395 278 q 413 292 427 317 l 463 303 q 441 258 414 236 q 387 215 351 215 q 327 215 306 223 q 284 231 255 247 z"},"D":{"x_min":0,"x_max":652,"ha":652,"o":"m 601 324 q 601 159 509 80 q 417 0 245 0 l 97 0 l 97 648 l 270 648 q 434 648 518 569 q 601 490 601 324 z m 544 324 q 544 462 478 531 q 413 600 274 600 l 152 600 l 152 48 l 244 48 q 336 48 402 72 q 468 96 506 156 q 544 217 544 324 z"},"^":{"x_min":0,"x_max":540,"ha":540,"o":"m 461 327 l 406 327 l 269 594 l 133 327 l 79 327 l 247 648 l 293 648 z"},"0":{"x_min":0,"x_max":540,"ha":540,"o":"m 39 322 q 39 442 72 517 q 104 592 158 626 q 211 659 277 659 q 390 659 446 570 q 501 481 501 321 q 501 143 436 66 q 370 -11 264 -11 q 39 -11 39 322 z m 445 322 q 445 468 402 540 q 360 613 273 613 q 190 613 142 543 q 95 473 95 322 q 95 176 138 106 q 180 35 269 35 q 353 35 399 103 q 445 171 445 322 z"},"F":{"x_min":0,"x_max":511,"ha":511,"o":"m 477 600 l 152 600 l 152 339 l 438 339 l 432 291 l 152 291 l 152 0 l 97 0 l 97 648 l 477 648 z"},"`":{"x_min":0,"x_max":261,"ha":261,"o":"m 200 492 l 40 592 l 71 633 l 221 515 z"},"k":{"x_min":0,"x_max":428,"ha":428,"o":"m 195 231 l 410 5 l 410 0 l 348 0 l 132 227 l 132 0 l 80 0 l 80 688 l 132 694 l 132 233 l 335 430 l 393 430 l 393 425 z"},"u":{"x_min":0,"x_max":506,"ha":506,"o":"m 427 436 l 427 0 l 380 0 l 377 40 q 341 18 300 4 q 258 -11 216 -11 q 155 -11 114 20 q 74 52 74 126 l 74 430 l 126 436 l 126 142 q 126 104 136 81 q 145 58 168 46 q 190 35 229 35 q 265 35 302 48 q 340 62 375 83 l 375 430 z"},"]":{"x_min":0,"x_max":360,"ha":360,"o":"m 27 -111 l 27 -65 l 204 -65 l 204 682 l 27 682 l 27 728 l 256 728 l 256 -111 z"},"U":{"x_min":0,"x_max":670,"ha":670,"o":"m 78 252 l 78 648 l 133 648 l 133 263 q 133 38 336 38 q 434 38 486 94 q 537 151 537 259 l 537 648 l 592 648 l 592 255 q 592 163 558 104 q 523 44 464 16 q 406 -11 332 -11 q 247 -11 190 22 q 134 56 106 115 q 78 174 78 252 z"},"o":{"x_min":0,"x_max":497,"ha":497,"o":"m 41 216 q 41 293 70 344 q 99 394 147 417 q 195 440 255 440 q 320 440 366 411 q 411 382 434 331 q 456 280 456 215 q 456 137 428 86 q 400 36 352 12 q 304 -11 242 -11 q 177 -11 132 19 q 87 49 64 100 q 41 152 41 216 z m 401 216 q 401 298 364 347 q 327 396 251 396 q 172 396 134 348 q 96 299 96 216 q 96 133 134 84 q 171 34 248 34 q 325 34 363 82 q 401 131 401 216 z"},"N":{"x_min":0,"x_max":698,"ha":698,"o":"m 601 648 l 601 0 l 536 0 l 191 506 q 187 512 174 532 q 160 551 150 570 l 150 0 l 97 0 l 97 648 l 158 648 l 501 148 q 514 130 526 110 q 539 91 548 73 l 548 648 z"},"+":{"x_min":0,"x_max":540,"ha":540,"o":"m 245 67 l 245 231 l 77 231 l 77 279 l 245 279 l 245 443 l 295 443 l 295 279 l 463 279 l 463 231 l 295 231 l 295 67 z"},"G":{"x_min":0,"x_max":631,"ha":631,"o":"m 564 347 l 564 46 q 507 17 458 3 q 408 -11 348 -11 q 251 -11 184 32 q 118 74 85 150 q 52 225 52 325 q 52 437 94 512 q 137 588 206 624 q 274 659 351 659 q 464 659 549 602 l 523 560 q 446 610 354 610 q 276 610 221 574 q 166 538 138 474 q 109 410 109 327 q 109 242 134 177 q 159 112 213 75 q 267 38 349 38 q 396 38 434 48 q 471 57 509 75 l 509 300 l 331 300 l 337 347 z"},"q":{"x_min":0,"x_max":498,"ha":498,"o":"m 419 412 l 419 -186 l 367 -186 l 367 32 q 331 11 292 0 q 254 -11 216 -11 q 157 -11 118 17 q 79 45 60 92 q 41 140 41 199 q 41 275 71 330 q 101 384 154 412 q 206 440 272 440 q 308 440 344 433 q 379 426 419 412 z m 367 76 l 367 383 q 320 396 274 396 q 220 396 180 374 q 140 352 118 308 q 96 264 96 199 q 96 125 128 80 q 160 35 226 35 q 263 35 297 46 q 331 57 367 76 z"},"d":{"x_min":0,"x_max":498,"ha":498,"o":"m 419 694 l 419 0 l 372 0 l 369 35 q 333 13 294 1 q 254 -11 217 -11 q 158 -11 118 16 q 79 44 60 92 q 41 140 41 200 q 41 272 68 326 q 95 381 145 410 q 195 440 262 440 q 317 440 367 421 l 367 688 z m 228 35 q 267 35 301 46 q 335 58 367 77 l 367 377 q 317 397 265 397 q 213 397 175 374 q 137 352 116 308 q 96 264 96 202 q 96 125 129 80 q 162 35 228 35 z"},"1":{"x_min":0,"x_max":540,"ha":540,"o":"m 316 47 l 455 47 l 455 0 l 88 0 l 88 47 l 262 47 l 262 587 l 107 493 l 85 524 l 262 648 l 316 648 z"},"5":{"x_min":0,"x_max":540,"ha":540,"o":"m 469 201 q 469 135 441 88 q 413 41 360 16 q 308 -9 236 -9 q 141 -9 71 26 l 90 68 q 159 37 235 37 q 287 37 328 56 q 368 74 390 110 q 413 146 413 196 q 413 273 372 313 q 331 353 239 353 q 178 353 131 338 l 107 359 l 107 648 l 452 648 l 446 602 l 159 602 l 159 387 q 182 393 207 396 q 232 400 251 400 q 321 400 370 376 q 419 353 444 308 q 469 263 469 201 z"}}}
